<svg width="213" height="148" viewBox="0 0 213 148" fill="none" xmlns="http://www.w3.org/2000/svg">
  <path d="M72.6319 54.542C83.519 54.542 92.3448 45.7163 92.3448 34.8291C92.3448 23.9419 83.519 15.1162 72.6319 15.1162C61.7447 15.1162 52.9189 23.9419 52.9189 34.8291C52.9189 45.7163 61.7447 54.542 72.6319 54.542Z" fill="#031E55"/>
  <path d="M150.064 15.1304H110.638V54.5563H150.064V15.1304Z" fill="#FF870A"/>
  <path d="M189.6 17.2185L169.261 52.5097C169.139 52.7207 169.075 52.96 169.074 53.2037C169.074 53.4473 169.137 53.6868 169.259 53.8982C169.38 54.1096 169.554 54.2855 169.765 54.4083C169.975 54.5311 170.214 54.5964 170.458 54.5979H211.165C211.408 54.5964 211.647 54.5311 211.858 54.4083C212.068 54.2855 212.243 54.1096 212.364 53.8982C212.485 53.6868 212.549 53.4473 212.548 53.2037C212.548 52.96 212.484 52.7207 212.362 52.5097L192.023 17.2185C191.901 17.0042 191.725 16.826 191.512 16.7021C191.299 16.5781 191.058 16.5127 190.811 16.5127C190.565 16.5127 190.323 16.5781 190.11 16.7021C189.898 16.826 189.722 17.0042 189.6 17.2185Z" fill="#BED1F8"/>
  <path d="M30.7421 128.271C23.0017 129.552 25.5076 116.424 24.9229 109.24C24.0598 98.9658 47.1974 64.5934 56.0515 52.8993C59.7965 47.9432 70.7945 28.453 74.957 30.8614C78.4374 32.894 74.0661 39.5207 69.0682 47.3724C65.1702 53.4562 61.8012 59.693 61.3557 61.4611C59.8939 67.4334 87.4447 71.9997 71.1147 96.8775C64.9196 106.191 52.3902 108.544 46.0559 119.055C43.9119 122.73 35.0161 127.575 30.7421 128.271Z" fill="#BED1F8"/>
  <path d="M21.8739 103.17C25.3264 101.597 48.1996 114.92 50.0094 117.844C53.3366 123.203 42.5892 145.269 37.5774 147.163C29.2245 150.295 -4.79985 135.232 0.71309 127.115C7.86878 116.619 18.9503 104.493 21.8739 103.17Z" fill="#031E55"/>
  <path d="M43.2991 123.325C43.3376 120.788 41.2873 118.7 38.7195 118.661C36.1518 118.622 34.039 120.647 34.0005 123.184C33.962 125.721 36.0123 127.809 38.58 127.848C41.1477 127.887 43.2605 125.862 43.2991 123.325Z" fill="#FF870A"/>
  <path d="M72.771 38.0451C72.1552 38.0415 71.5509 37.8784 71.0169 37.5717C70.6264 37.352 70.2837 37.0566 70.0088 36.7028C69.7339 36.349 69.5323 35.944 69.4159 35.5113C69.3929 35.4227 69.3876 35.3303 69.4003 35.2396C69.4131 35.1489 69.4436 35.0616 69.4902 34.9827C69.5367 34.9038 69.5984 34.8349 69.6717 34.7799C69.7449 34.7248 69.8283 34.6848 69.9171 34.6621C70.0978 34.6199 70.288 34.6502 70.4467 34.7465C70.6055 34.8428 70.7202 34.9974 70.7663 35.1772C70.834 35.4271 70.9515 35.6608 71.1118 35.8641C71.2721 36.0675 71.4718 36.2363 71.699 36.3606C72.1832 36.6408 72.7577 36.7208 73.3 36.5833C73.3914 36.5604 73.4864 36.5558 73.5796 36.5697C73.6728 36.5836 73.7624 36.6157 73.8432 36.6641C73.924 36.7126 73.9944 36.7765 74.0505 36.8522C74.1066 36.9279 74.1472 37.0139 74.1701 37.1054C74.1929 37.1968 74.1976 37.2918 74.1837 37.385C74.1698 37.4782 74.1377 37.5677 74.0893 37.6485C74.0408 37.7293 73.9769 37.7998 73.9012 37.8559C73.8255 37.912 73.7394 37.9526 73.648 37.9755C73.3594 38.0327 73.065 38.056 72.771 38.0451Z" fill="#91B0F2"/>
  <path d="M49.2009 13.4457C49.0238 13.4446 48.8541 13.3747 48.7276 13.2508L44.2588 8.93512C44.1922 8.87262 44.139 8.79715 44.1027 8.71334C44.0665 8.62954 44.0479 8.53918 44.0479 8.44786C44.0479 8.35654 44.0665 8.26619 44.1027 8.18239C44.139 8.09858 44.1922 8.0231 44.2588 7.96061C44.3223 7.89578 44.3981 7.84429 44.4818 7.80913C44.5654 7.77397 44.6552 7.75586 44.7459 7.75586C44.8367 7.75586 44.9266 7.77397 45.0103 7.80913C45.094 7.84429 45.1697 7.89578 45.2332 7.96061L49.702 12.2763C49.8022 12.3728 49.8712 12.4972 49.9001 12.6333C49.9289 12.7694 49.9162 12.911 49.8638 13.0399C49.8114 13.1687 49.7215 13.2789 49.6058 13.3562C49.4902 13.4335 49.354 13.4744 49.2149 13.4735L49.2009 13.4457Z" fill="#031E55"/>
  <path d="M38.7605 24.6666C38.577 24.6631 38.402 24.5886 38.2723 24.4588C38.1425 24.3291 38.068 24.1541 38.0645 23.9706C38.0644 23.7883 38.1358 23.6134 38.2634 23.4832C38.3909 23.3531 38.5644 23.2781 38.7466 23.2745L44.9556 23.1631C45.1402 23.1631 45.3173 23.2365 45.4478 23.367C45.5784 23.4975 45.6517 23.6746 45.6517 23.8592C45.6517 24.0438 45.5784 24.2209 45.4478 24.3514C45.3173 24.4819 45.1402 24.5553 44.9556 24.5553L38.7745 24.6666H38.7605Z" fill="#031E55"/>
  <path d="M60.0469 8.60098C59.8623 8.60098 59.6852 8.52764 59.5547 8.3971C59.4241 8.26656 59.3508 8.08951 59.3508 7.9049L59.2394 1.7098C59.2373 1.6136 59.2552 1.51801 59.2919 1.42907C59.3286 1.34012 59.3834 1.25976 59.4527 1.19304C59.522 1.12632 59.6044 1.0747 59.6947 1.04144C59.785 1.00818 59.8812 0.994003 59.9773 0.999799C60.0692 0.996045 60.1609 1.01091 60.2469 1.04351C60.3329 1.07611 60.4114 1.12576 60.4777 1.18948C60.544 1.2532 60.5968 1.32968 60.6328 1.41431C60.6688 1.49894 60.6873 1.58998 60.6873 1.68196L60.743 7.96059C60.7397 8.14315 60.6677 8.31775 60.5412 8.44942C60.4147 8.58108 60.2431 8.66008 60.0608 8.67059L60.0469 8.60098Z" fill="#031E55"/>
</svg>